<?xml version="1.0" encoding="utf-8"?>
<!-- Generator: Adobe Illustrator 23.1.1, SVG Export Plug-In . SVG Version: 6.00 Build 0)  -->
<svg version="1.1" id="logo" xmlns="http://www.w3.org/2000/svg" xmlns:xlink="http://www.w3.org/1999/xlink" x="0px" y="0px"
	 viewBox="0 0 75 75" style="enable-background:new 0 0 75 75;" xml:space="preserve">
<style type="text/css">
	.st0{fill:#14AA40;}
	.st1{fill:#FFFFFF;}
</style>
<g>
	<g id="Layer_1-2">
		<rect class="st0" width="75" height="75" shape-rendering="geometricPrecision"/>

		<polygon class="st1" points="5.6,39.7 9.7,39.7 9.7,44.3 13,44.3 13,39.7 17.1,39.7 17.1,52.7 13,52.7 13,48 9.7,48 9.7,52.7 
			5.6,52.7" shape-rendering="geometricPrecision"/>

		<path class="st1" d="M38.2,49.2H37v3.4H33v-13h6.5c3.3,0,5.1,2,5.1,4.8c0,1.9-0.8,3.3-2.2,4.1l2.6,4.1h-4.7L38.2,49.2z M39,46
			c0.8,0,1.5-0.6,1.5-1.3c0-0.1,0-0.1,0-0.2c0-1-0.5-1.6-1.5-1.6h-2V46H39z" shape-rendering="geometricPrecision"/>

		<path class="st1" d="M5.6,56.3h6.7c2.4,0,3.9,1.4,3.9,3.4c0.1,1.2-0.6,2.4-1.7,2.9c1.6,0.3,2.5,1.4,2.5,3c0,2.2-1.6,3.7-4.6,3.7
			H5.6V56.3z M11.4,61.4c0.5,0,1-0.4,1-0.9c0,0,0-0.1,0-0.1c0-0.5-0.4-1-0.9-1c0,0-0.1,0-0.1,0H9.5v2.1L11.4,61.4z M12.2,66.3
			c0.6,0,1-0.4,1-1c0,0,0-0.1,0-0.1c0-0.6-0.4-1-1-1.1c0,0,0,0-0.1,0H9.5v2.2L12.2,66.3z" shape-rendering="geometricPrecision"/>

		<polygon class="st1" points="18.7,56.3 22.8,56.3 22.8,65.9 28,65.9 28,69.3 18.7,69.3" shape-rendering="geometricPrecision"/>

		<path class="st1" d="M29.1,63.6V62c0-3.5,2.1-5.9,6.2-5.9s6.2,2.4,6.2,5.9v1.6c0,3.5-2.1,5.9-6.2,5.9S29.1,67.2,29.1,63.6
			 M37.5,63.9v-2.1c0-1.5-0.7-2.3-2.1-2.3s-2.1,0.8-2.1,2.3v2.1c0,1.5,0.7,2.3,2.1,2.3C36.7,66.2,37.5,65.4,37.5,63.9" shape-rendering="geometricPrecision"/>

		<path class="st1" d="M49.1,66.2c1.4,0,1.9-1,2-1.9h3.8c-0.1,2.9-2.1,5.3-5.8,5.3c-4.2,0-6.2-2.4-6.2-5.9V62c0-3.5,2-5.9,6.2-5.9
			c3.7,0,5.7,2.4,5.8,5.3h-3.8c-0.1-1-0.6-1.9-2-1.9S47,60.3,47,61.8v2.1C47,65.3,47.7,66.2,49.1,66.2" shape-rendering="geometricPrecision"/>

		<path class="st1" d="M69.5,57.1c0-0.6,0.4-1.1,1-1.1c0.6,0,1.1,0.4,1.1,1c0,0.6-0.4,1.1-1,1.1c0,0,0,0,0,0
			C70,58.2,69.5,57.7,69.5,57.1C69.5,57.1,69.5,57.1,69.5,57.1 M71.4,57.1c0-0.5-0.4-0.8-0.8-0.8c-0.5,0-0.8,0.4-0.8,0.8
			c0,0.5,0.4,0.8,0.8,0.8c0,0,0,0,0,0C71,58,71.4,57.6,71.4,57.1C71.4,57.2,71.4,57.1,71.4,57.1 M70.5,57.3L70.5,57.3l-0.1,0.3h-0.3
			v-0.9h0.4c0.2,0,0.4,0.1,0.4,0.3c0,0.1,0,0.2-0.1,0.3l0.2,0.3h-0.3L70.5,57.3z M70.6,57c0.1,0,0.1,0,0.1-0.1c0,0,0,0,0,0
			c0-0.1,0-0.1-0.1-0.1h-0.1L70.6,57L70.6,57z" shape-rendering="geometricPrecision"/>

		<polygon class="st1" points="57.2,56.3 61.2,56.3 61.2,60.8 61.5,60.8 64.1,56.3 68.7,56.3 65.3,62.2 69.1,69.3 64.2,69.3 
			61.5,63.9 61.2,63.9 61.2,69.3 57.2,69.3" shape-rendering="geometricPrecision"/>

		<path class="st1" d="M29.5,49.9c0.4-0.8,0.6-1.6,0.5-2.5v-2h-2.9v1.9l-3-3.4c-0.3-0.3-0.5-0.7-0.5-1.1c0.1-0.5,0.5-0.9,1-0.8
			c0.4,0.1,0.8,0.4,0.8,0.9v0.6h3.1v-0.8c0-2.1-1.7-3.3-4.1-3.3c-2.6,0-4.2,1.4-4.2,3.4c0,0.9,0.4,1.7,1.1,2.3
			c-1.4,0.6-2.3,2-2.4,3.6c0,2.6,2,4.3,5.6,4.3c1.1,0,2.2-0.3,3.2-0.9l0.6,0.6H32L29.5,49.9z M24.5,50.2c-0.9,0-2.1-0.5-2.1-1.7
			c0-0.6,0.4-1.2,0.9-1.5c0,0,2.1,2.4,2.6,2.9C25.4,50.1,25,50.3,24.5,50.2" shape-rendering="geometricPrecision"/>
	</g>
</g>
</svg>
